<svg width="113" height="17" viewBox="0 0 113 17" fill="none" xmlns="http://www.w3.org/2000/svg">
<path d="M2.41589 12.4783H0.0648193V1.02785H2.41589V5.81414H7.37024V1.02785H9.7213V12.4783H7.37024V7.86759H2.41589V12.4783ZM17.7753 12.4783H15.8671L15.7526 11.5699C15.4727 11.9058 15.1265 12.1679 14.7144 12.3562C14.3022 12.5394 13.8491 12.631 13.3555 12.631C12.8212 12.631 12.3453 12.5292 11.928 12.3256C11.5107 12.117 11.1826 11.832 10.9432 11.4707C10.7041 11.1042 10.5846 10.6895 10.5846 10.2264C10.5846 9.73782 10.7143 9.30779 10.9739 8.9363C11.2334 8.56478 11.5896 8.27471 12.0427 8.06605C12.5005 7.85231 13.0196 7.74544 13.5997 7.74544C13.9407 7.74544 14.2817 7.78361 14.6226 7.85994C14.9688 7.93629 15.2893 8.04316 15.5845 8.18055V7.98209C15.5845 7.67674 15.498 7.41465 15.3251 7.19583C15.157 6.97191 14.9231 6.79887 14.6226 6.67674C14.3277 6.55461 13.9967 6.49352 13.6304 6.49352C13.2792 6.49352 12.9306 6.5495 12.5846 6.66148C12.2437 6.77343 11.928 6.94136 11.638 7.16529L11.0426 5.49351C11.5565 5.22889 12.0756 5.03041 12.5999 4.8981C13.129 4.7607 13.6405 4.69199 14.1343 4.69199C14.8773 4.69199 15.5209 4.83958 16.0655 5.13475C16.61 5.42482 17.0299 5.83704 17.3251 6.37139C17.6253 6.90066 17.7753 7.52915 17.7753 8.2569V12.4783ZM13.8365 10.9439C14.1264 10.9439 14.404 10.8803 14.6686 10.7531C14.9331 10.6259 15.147 10.4528 15.3098 10.234C15.4777 10.0152 15.5668 9.77345 15.5769 9.50882V9.45539C15.353 9.30271 15.1036 9.18566 14.8289 9.10423C14.5592 9.01772 14.2843 8.97447 14.0043 8.97447C13.5871 8.97447 13.2461 9.06606 12.9814 9.24928C12.7168 9.43248 12.5846 9.66913 12.5846 9.9592C12.5846 10.1475 12.6381 10.318 12.7449 10.4707C12.8567 10.6182 13.0069 10.7353 13.1953 10.8218C13.3835 10.9032 13.5973 10.9439 13.8365 10.9439ZM21.0586 16.2951H18.8601V4.84466H20.7836L20.8981 5.88284C21.2238 5.51133 21.6132 5.22126 22.0662 5.0126C22.5241 4.79886 23.0229 4.69199 23.5622 4.69199C24.2647 4.69199 24.888 4.86502 25.4326 5.21108C25.9772 5.55205 26.4071 6.02279 26.7226 6.6233C27.0382 7.21872 27.1959 7.89812 27.1959 8.66149C27.1959 9.41976 27.0382 10.0992 26.7226 10.6997C26.4071 11.3002 25.9772 11.7735 25.4326 12.1195C24.888 12.4605 24.2647 12.631 23.5622 12.631C23.0636 12.631 22.6006 12.5419 22.173 12.3638C21.7505 12.1806 21.379 11.9287 21.0586 11.6081V16.2951ZM23.005 10.6615C23.3867 10.6615 23.7227 10.5775 24.0126 10.4096C24.3028 10.2366 24.5293 9.99992 24.6922 9.69965C24.8601 9.3943 24.944 9.04825 24.944 8.66149C24.944 8.26961 24.8601 7.92356 24.6922 7.62331C24.5293 7.32306 24.3028 7.08641 24.0126 6.91337C23.7227 6.74035 23.3893 6.65383 23.0126 6.65383C22.6564 6.65383 22.3359 6.73272 22.051 6.89048C21.7658 7.04315 21.5343 7.25689 21.3562 7.5317C21.1833 7.80651 21.0839 8.12204 21.0586 8.47827V8.85995C21.0839 9.20602 21.1833 9.51645 21.3562 9.79126C21.5292 10.061 21.7582 10.2747 22.0433 10.4325C22.3283 10.5852 22.6488 10.6615 23.005 10.6615ZM30.1584 16.2951H27.9599V4.84466H29.8835L29.9982 5.88284C30.3239 5.51133 30.713 5.22126 31.1661 5.0126C31.6241 4.79886 32.1227 4.69199 32.6623 4.69199C33.3645 4.69199 33.988 4.86502 34.5324 5.21108C35.077 5.55205 35.5069 6.02279 35.8226 6.6233C36.1381 7.21872 36.2959 7.89812 36.2959 8.66149C36.2959 9.41976 36.1381 10.0992 35.8226 10.6997C35.5069 11.3002 35.077 11.7735 34.5324 12.1195C33.988 12.4605 33.3645 12.631 32.6623 12.631C32.1635 12.631 31.7004 12.5419 31.2729 12.3638C30.8506 12.1806 30.4791 11.9287 30.1584 11.6081V16.2951ZM32.105 10.6615C32.4866 10.6615 32.8225 10.5775 33.1127 10.4096C33.4027 10.2366 33.6292 9.99992 33.792 9.69965C33.9599 9.3943 34.0438 9.04825 34.0438 8.66149C34.0438 8.26961 33.9599 7.92356 33.792 7.62331C33.6292 7.32306 33.4027 7.08641 33.1127 6.91337C32.8225 6.74035 32.4892 6.65383 32.1127 6.65383C31.7564 6.65383 31.4357 6.73272 31.1508 6.89048C30.8658 7.04315 30.6343 7.25689 30.4562 7.5317C30.2831 7.80651 30.1839 8.12204 30.1584 8.47827V8.85995C30.1839 9.20602 30.2831 9.51645 30.4562 9.79126C30.6291 10.061 30.8582 10.2747 31.1432 10.4325C31.4281 10.5852 31.7488 10.6615 32.105 10.6615ZM40.8079 16.2951H38.4721L40.0599 12.4707L36.2047 4.84466H38.6781L41.098 9.97446L43.2202 4.84466H45.5484L40.8079 16.2951ZM58.9086 11.0432C58.3742 11.5623 57.7405 11.9694 57.0077 12.2646C56.275 12.5597 55.4784 12.7073 54.6185 12.7073C53.7482 12.7073 52.9466 12.5597 52.2138 12.2646C51.4811 11.9643 50.8423 11.547 50.2977 11.0126C49.7583 10.4732 49.3384 9.84214 49.0382 9.11949C48.738 8.39684 48.5878 7.60805 48.5878 6.75306C48.5878 5.8981 48.738 5.10931 49.0382 4.38664C49.3384 3.65891 49.7583 3.02786 50.2977 2.49351C50.8423 1.95914 51.4811 1.54439 52.2138 1.24922C52.9466 0.948973 53.7482 0.798828 54.6185 0.798828C55.4733 0.798828 56.2647 0.946423 56.9925 1.24159C57.7252 1.53676 58.359 1.94643 58.8933 2.4706L57.2521 4.11946C56.9314 3.7276 56.5394 3.41972 56.0764 3.1958C55.6183 2.9668 55.1197 2.85228 54.5801 2.85228C54.0663 2.85228 53.5904 2.95152 53.1528 3.15C52.7203 3.34337 52.3411 3.6182 52.0154 3.97444C51.6897 4.32557 51.4377 4.73779 51.2596 5.21108C51.0815 5.68436 50.9925 6.19582 50.9925 6.74544C50.9925 7.30525 51.0815 7.82179 51.2596 8.29507C51.4377 8.76836 51.6897 9.18311 52.0154 9.53935C52.3411 9.8905 52.7203 10.1653 53.1528 10.3638C53.5904 10.5572 54.0663 10.6539 54.5801 10.6539C55.1197 10.6539 55.6183 10.5419 56.0764 10.318C56.5344 10.089 56.9238 9.77853 57.2443 9.38667L58.9086 11.0432ZM63.2832 12.631C62.4994 12.631 61.7972 12.4605 61.1763 12.1195C60.5554 11.7735 60.0668 11.3027 59.7106 10.7073C59.3596 10.1068 59.1839 9.42484 59.1839 8.66149C59.1839 7.90322 59.3596 7.22635 59.7106 6.63093C60.0668 6.03041 60.5554 5.55713 61.1763 5.21108C61.7972 4.86502 62.4994 4.69199 63.2832 4.69199C64.0669 4.69199 64.7641 4.86502 65.3748 5.21108C65.9905 5.55713 66.474 6.03041 66.8252 6.63093C67.1815 7.22635 67.3596 7.90322 67.3596 8.66149C67.3596 9.42484 67.1815 10.1068 66.8252 10.7073C66.474 11.3027 65.9905 11.7735 65.3748 12.1195C64.7641 12.4605 64.0669 12.631 63.2832 12.631ZM63.2756 10.6691C63.6268 10.6691 63.9396 10.5826 64.2145 10.4096C64.4945 10.2315 64.7132 9.99229 64.871 9.69202C65.0338 9.38667 65.1152 9.03807 65.1152 8.64621C65.1152 8.26961 65.0338 7.93119 64.871 7.63094C64.7132 7.33069 64.4945 7.09404 64.2145 6.92102C63.9396 6.7429 63.6268 6.65383 63.2756 6.65383C62.9193 6.65383 62.6012 6.7429 62.3213 6.92102C62.0466 7.09404 61.8277 7.33069 61.6649 7.63094C61.507 7.93119 61.4281 8.26961 61.4281 8.64621C61.4281 9.03807 61.507 9.38667 61.6649 9.69202C61.8277 9.99229 62.0466 10.2315 62.3213 10.4096C62.6012 10.5826 62.9193 10.6691 63.2756 10.6691ZM74.9403 12.4783H73.032L72.9174 11.5699C72.6375 11.9058 72.2915 12.1679 71.8792 12.3562C71.4671 12.5394 71.0141 12.631 70.5205 12.631C69.9862 12.631 69.5103 12.5292 69.093 12.3256C68.6757 12.117 68.3474 11.832 68.1082 11.4707C67.869 11.1042 67.7494 10.6895 67.7494 10.2264C67.7494 9.73782 67.8793 9.30779 68.1387 8.9363C68.3984 8.56478 68.7546 8.27471 69.2074 8.06605C69.6655 7.85231 70.1846 7.74544 70.7647 7.74544C71.1057 7.74544 71.4467 7.78361 71.7876 7.85994C72.1336 7.93629 72.4543 8.04316 72.7495 8.18055V7.98209C72.7495 7.67674 72.663 7.41465 72.4899 7.19583C72.322 6.97191 72.0878 6.79887 71.7876 6.67674C71.4924 6.55461 71.1617 6.49352 70.7952 6.49352C70.4442 6.49352 70.0956 6.5495 69.7494 6.66148C69.4085 6.77343 69.093 6.94136 68.8028 7.16529L68.2074 5.49351C68.7215 5.22889 69.2406 5.03041 69.7647 4.8981C70.294 4.7607 70.8055 4.69199 71.2991 4.69199C72.0421 4.69199 72.6858 4.83958 73.2304 5.13475C73.775 5.42482 74.1947 5.83704 74.4899 6.37139C74.7903 6.90066 74.9403 7.52915 74.9403 8.2569V12.4783ZM71.0015 10.9439C71.2914 10.9439 71.5688 10.8803 71.8334 10.7531C72.0981 10.6259 72.3117 10.4528 72.4746 10.234C72.6427 10.0152 72.7316 9.77345 72.7419 9.50882V9.45539C72.518 9.30271 72.2686 9.18566 71.9939 9.10423C71.724 9.01772 71.4493 8.97447 71.1693 8.97447C70.7521 8.97447 70.4111 9.06606 70.1464 9.24928C69.8818 9.43248 69.7494 9.66913 69.7494 9.9592C69.7494 10.1475 69.8028 10.318 69.9099 10.4707C70.0217 10.6182 70.1719 10.7353 70.3601 10.8218C70.5484 10.9032 70.7623 10.9439 71.0015 10.9439ZM82.7883 11.2646C82.4168 11.692 81.9614 12.0279 81.4218 12.2722C80.8824 12.5114 80.2897 12.631 79.6433 12.631C78.8595 12.631 78.1573 12.4605 77.5364 12.1195C76.9207 11.7735 76.4345 11.3002 76.0783 10.6997C75.7273 10.0992 75.5516 9.41976 75.5516 8.66149C75.5516 7.89812 75.7273 7.21872 76.0783 6.6233C76.4345 6.02279 76.9207 5.55205 77.5364 5.21108C78.1573 4.86502 78.8595 4.69199 79.6433 4.69199C80.2844 4.69199 80.8748 4.81159 81.4142 5.05077C81.9538 5.28995 82.4092 5.62074 82.7807 6.04315L81.4907 7.39431C81.2921 7.16529 81.0403 6.98717 80.7349 6.85994C80.4347 6.72762 80.1192 6.66148 79.7883 6.66148C79.4067 6.66148 79.0657 6.74798 78.7653 6.92102C78.4651 7.08896 78.2286 7.32306 78.0555 7.62331C77.8824 7.91848 77.796 8.25945 77.796 8.64621C77.796 9.03807 77.8824 9.38667 78.0555 9.69202C78.2286 9.99737 78.4651 10.2366 78.7653 10.4096C79.0657 10.5775 79.4067 10.6615 79.7883 10.6615C80.1192 10.6615 80.4373 10.5979 80.7425 10.4707C81.0479 10.3383 81.2973 10.1577 81.4907 9.92867L82.7883 11.2646ZM83.5064 12.4783V1.02785H85.6974V5.74543C86.2471 5.04314 87.0358 4.69199 88.0638 4.69199C89.0257 4.69199 89.7763 4.9897 90.3156 5.58512C90.8552 6.17546 91.1249 7.00243 91.1249 8.06605V12.4783H88.9341V8.64621C88.9341 8.01009 88.7941 7.51899 88.5142 7.17292C88.2343 6.82686 87.8425 6.65383 87.3387 6.65383C86.8246 6.65383 86.4226 6.82941 86.1324 7.18055C85.8424 7.5317 85.6974 8.02025 85.6974 8.64621V12.4783H83.5064ZM93.3163 3.02023C93.0264 3.02023 92.782 2.91844 92.5836 2.71488C92.385 2.51132 92.2858 2.26449 92.2858 1.97442C92.2858 1.68433 92.385 1.44007 92.5836 1.24159C92.782 1.03803 93.0264 0.936241 93.3163 0.936241C93.6115 0.936241 93.8583 1.03803 94.0569 1.24159C94.2603 1.44007 94.3621 1.68433 94.3621 1.97442C94.3621 2.26449 94.2603 2.51132 94.0569 2.71488C93.8583 2.91844 93.6115 3.02023 93.3163 3.02023ZM94.4156 12.4783H92.2247V4.84466H94.4156V12.4783ZM103.294 12.4783H101.103V8.56988C101.103 7.97446 100.961 7.50881 100.676 7.17292C100.396 6.83196 100.012 6.66148 99.5231 6.66148C99.0143 6.66148 98.6096 6.83959 98.3094 7.19583C98.0142 7.54696 97.8666 8.02535 97.8666 8.63095V12.4783H95.6758V4.84466H97.4468L97.5231 6.06604C97.798 5.61822 98.1566 5.27724 98.5994 5.04314C99.0422 4.80904 99.5639 4.69199 100.164 4.69199C101.136 4.69199 101.9 4.99225 102.455 5.59275C103.014 6.18819 103.294 7.01261 103.294 8.06605V12.4783ZM107.501 12.5699C106.814 12.5699 106.198 12.3994 105.654 12.0584C105.109 11.7124 104.681 11.2442 104.371 10.6539C104.061 10.0584 103.905 9.38414 103.905 8.63095C103.905 7.87267 104.061 7.19836 104.371 6.60804C104.681 6.0177 105.109 5.55205 105.654 5.21108C106.198 4.86502 106.816 4.69199 107.508 4.69199C108.048 4.69199 108.542 4.79886 108.989 5.0126C109.442 5.22126 109.832 5.51133 110.157 5.88284L110.257 4.84466H112.18V12.2646C112.18 13.1094 111.995 13.8448 111.623 14.4707C111.257 15.1017 110.737 15.5878 110.066 15.9288C109.394 16.2748 108.608 16.4479 107.707 16.4479C106.455 16.4479 105.32 16.0559 104.302 15.2722L105.188 13.486C105.865 14.1526 106.654 14.486 107.554 14.486C108.038 14.486 108.46 14.3892 108.822 14.1958C109.188 14.0024 109.473 13.7328 109.676 13.3868C109.885 13.0406 109.989 12.6386 109.989 12.1806V11.5546C109.674 11.8702 109.305 12.1195 108.883 12.3027C108.46 12.4809 108 12.5699 107.501 12.5699ZM108.066 10.6157C108.422 10.6157 108.745 10.5394 109.035 10.3867C109.325 10.2289 109.557 10.0126 109.73 9.73782C109.903 9.45792 109.989 9.14241 109.989 8.79125V8.46301C109.989 8.11186 109.9 7.79888 109.722 7.52407C109.549 7.24926 109.318 7.03552 109.028 6.88285C108.743 6.72509 108.422 6.6462 108.066 6.6462C107.699 6.6462 107.371 6.73272 107.081 6.90574C106.791 7.07878 106.562 7.31541 106.394 7.61568C106.226 7.91085 106.142 8.24927 106.142 8.63095C106.142 9.01262 106.226 9.3536 106.394 9.65385C106.562 9.95412 106.791 10.1907 107.081 10.3638C107.371 10.5317 107.699 10.6157 108.066 10.6157Z" fill="#333461"/>
</svg>
